<?xml version="1.0" encoding="UTF-8"?>
<svg id="Layer_1" data-name="Layer 1" xmlns="http://www.w3.org/2000/svg" viewBox="0 0 216.93 54.54">
  <defs>
    <style>
      .cls-1 {
        fill: #fbb040;
      }

      .cls-2 {
        fill: #fff;
      }
    </style>
  </defs>
  <path class="cls-2" d="M3.75,34.94c0-.14.06-.2.22-.2h2.74c.14,0,.2.03.2.17v13.1c0,.9-.06,1.82-.22,2.49-.64,2.86-2.69,4.03-5.35,4.03-.42,0-.81-.03-1.15-.11-.17-.03-.2-.14-.2-.31v-2.38c0-.14.08-.2.22-.17.39.06.59.06.81.06,1.68,0,2.72-.7,2.72-3.33v-13.36Z"/>
  <path class="cls-2" d="M11.9,53.06c-.2,0-.22-.08-.22-.28v-17.81c0-.14.03-.22.2-.22h2.77c.14,0,.17.06.17.2v15.26h7.9c.14,0,.2.08.17.2l-.42,2.46c-.03.17-.14.2-.25.2h-10.3Z"/>
  <path class="cls-2" d="M25.59,52.36c-.14-.08-.2-.2-.2-.39v-2.72c0-.14.11-.2.22-.11,1.43.92,3.14,1.37,4.7,1.37,2.27,0,3.22-.95,3.22-2.21,0-1.06-.64-1.88-2.77-2.86l-1.23-.56c-3.28-1.48-4.12-3.19-4.12-5.26,0-2.91,2.16-5.15,6.19-5.15,1.74,0,3.19.25,4.06.7.11.06.14.17.14.34v2.55c0,.11-.08.22-.22.11-1.01-.59-2.46-.9-3.98-.9-2.38,0-3.14,1.09-3.14,2.1s.62,1.79,2.77,2.77l1.04.45c3.47,1.57,4.45,3.3,4.45,5.43,0,3.19-2.46,5.29-6.5,5.29-1.9,0-3.56-.34-4.65-.95Z"/>
  <path class="cls-1" d="M47.71,53.06c-.17,0-.2-.06-.2-.22v-17.84c0-.11.03-.22.17-.22,1.88-.06,3.11-.08,5.21-.08,4.28,0,6.86,1.9,6.86,5.43,0,2.46-1.6,4.14-3.53,4.87.9,1.29,4.14,6.3,4.96,7.78.08.14.11.28-.06.28h-3.22c-.22,0-.28-.06-.36-.14-.78-1.29-2.72-4.54-3.95-6.55-.2-.34-.34-.48-.64-.48h-2.35v6.97c0,.14-.06.2-.2.2h-2.69ZM52.95,43.17c2.3,0,3.64-1.09,3.64-2.88,0-1.9-1.43-2.86-3.81-2.86-.9,0-1.74.06-2.18.08v5.66h2.35Z"/>
  <path class="cls-1" d="M75.15,52.83c-.03.17-.08.22-.25.22h-10.58c-.2,0-.22-.06-.22-.22v-17.86c0-.17.03-.22.2-.22h10.25c.17,0,.22.03.25.17l.28,2.44c.03.14-.03.25-.2.25h-7.64v4.68h6.94c.11,0,.2.06.2.2v2.46c0,.17-.08.2-.22.2h-6.92v5.07h8.12c.17,0,.2.06.17.2l-.36,2.44Z"/>
  <path class="cls-1" d="M86.49,45.64c-.17-.03-.2-.08-.2-.22v-2.32c0-.14.06-.2.17-.2h6.05c.2,0,.22.08.22.22v9.07c0,.14-.03.2-.17.25-1.85.7-3.64.87-5.18.87-6.3,0-9.38-4.12-9.38-9.3,0-5.85,3.98-9.55,9.88-9.55,1.74,0,3.28.2,4.23.64.11.06.17.14.17.31v2.52c0,.17-.11.2-.22.14-1.18-.59-2.55-.76-4.12-.78-4.34-.03-6.69,2.46-6.69,6.61,0,3.78,2.16,6.64,6.27,6.64.9,0,1.51-.08,2.04-.25v-4.56l-3.08-.08Z"/>
  <path class="cls-1" d="M97.35,53.06c-.2,0-.22-.08-.22-.28v-17.81c0-.14.03-.22.2-.22h2.77c.14,0,.17.06.17.2v15.26h7.9c.14,0,.2.08.17.2l-.42,2.46c-.03.17-.14.2-.25.2h-10.3Z"/>
  <path class="cls-1" d="M115.08,48.05l-1.54,4.82c-.03.14-.11.2-.28.2h-2.58c-.2,0-.25-.08-.2-.25l5.52-16.46c.08-.28.17-.53.2-1.43,0-.11.06-.17.17-.17h3.64c.14,0,.17.03.2.14l6.13,17.95c.06.14.03.22-.14.22h-2.91c-.14,0-.2-.06-.25-.17l-1.6-4.84h-6.36ZM120.62,45.19c-.56-1.88-1.88-5.82-2.38-7.78h-.03c-.45,1.85-1.48,5.15-2.32,7.78h4.73Z"/>
  <path class="cls-1" d="M128.97,53.06c-.14,0-.22-.03-.22-.22v-1.71c0-.14.03-.2.11-.34l9.35-13.22h-9.02c-.14,0-.22-.03-.2-.2l.39-2.44c.03-.17.08-.2.22-.2h12.38c.14,0,.17.06.17.17v1.85c0,.14-.03.25-.11.39l-9.24,13.05h9.63c.11,0,.17.08.14.22l-.45,2.44c-.03.14-.08.2-.25.2h-12.91Z"/>
  <path class="cls-1" d="M148.96,52.83c0,.17-.06.22-.2.22h-2.74c-.17,0-.2-.06-.2-.22v-17.89c0-.17.06-.2.2-.2h2.74c.14,0,.2.06.2.2v17.89Z"/>
  <path class="cls-1" d="M154.11,53.06c-.17,0-.22-.03-.22-.22v-17.89c0-.14.03-.2.17-.2h3.67c.2,0,.22.03.31.2,1.99,3.67,6.22,11.79,7.11,13.8h.03c-.03-.81-.08-1.9-.08-4.37v-9.41c0-.17.06-.22.22-.22h2.52c.17,0,.22.06.22.22v17.84c0,.2-.06.25-.28.25h-3.28c-.2,0-.28-.03-.36-.2-1.37-2.86-6.41-12.07-7.42-14.7h-.03c.11,1.34.14,2.72.14,5.18v9.49c0,.17-.06.22-.2.22h-2.52Z"/>
  <path class="cls-1" d="M180.43,45.64c-.17-.03-.2-.08-.2-.22v-2.32c0-.14.06-.2.17-.2h6.05c.2,0,.22.08.22.22v9.07c0,.14-.03.2-.17.25-1.85.7-3.64.87-5.18.87-6.3,0-9.38-4.12-9.38-9.3,0-5.85,3.98-9.55,9.88-9.55,1.74,0,3.28.2,4.23.64.11.06.17.14.17.31v2.52c0,.17-.11.2-.22.14-1.18-.59-2.55-.76-4.12-.78-4.34-.03-6.69,2.46-6.69,6.61,0,3.78,2.16,6.64,6.27,6.64.9,0,1.51-.08,2.04-.25v-4.56l-3.08-.08Z"/>
</svg>